<svg xmlns="http://www.w3.org/2000/svg" viewBox="0 0 400 200">
    <!-- Corona di alloro sinistra -->
    <path d="M 80 100 Q 70 85 72 70 Q 74 60 78 55 L 80 58 Q 78 70 79 85 Q 80 92 80 100" fill="#B8964F" stroke="#D4AF37" stroke-width="2"/>
    <ellipse cx="72" cy="65" rx="4" ry="6" fill="#D4AF37"/>
    <ellipse cx="75" cy="75" rx="3.5" ry="5" fill="#D4AF37"/>
    <ellipse cx="77" cy="85" rx="3.5" ry="5" fill="#D4AF37"/>
    <ellipse cx="78" cy="93" rx="3.5" ry="5" fill="#D4AF37"/>
    <path d="M 80 100 Q 72 115 74 130 Q 76 138 80 143 L 82 140 Q 80 128 80 115 Q 80 107 80 100" fill="#B8964F" stroke="#D4AF37" stroke-width="2"/>
    <ellipse cx="78" cy="107" rx="3.5" ry="5" fill="#D4AF37"/>
    <ellipse cx="77" cy="117" rx="3.5" ry="5" fill="#D4AF37"/>
    <ellipse cx="76" cy="127" rx="3.5" ry="5" fill="#D4AF37"/>
    <ellipse cx="76" cy="136" rx="4" ry="6" fill="#D4AF37"/>

    <!-- Corona di alloro destra -->
    <path d="M 320 100 Q 330 85 328 70 Q 326 60 322 55 L 320 58 Q 322 70 321 85 Q 320 92 320 100" fill="#B8964F" stroke="#D4AF37" stroke-width="2"/>
    <ellipse cx="328" cy="65" rx="4" ry="6" fill="#D4AF37"/>
    <ellipse cx="325" cy="75" rx="3.5" ry="5" fill="#D4AF37"/>
    <ellipse cx="323" cy="85" rx="3.5" ry="5" fill="#D4AF37"/>
    <ellipse cx="322" cy="93" rx="3.5" ry="5" fill="#D4AF37"/>
    <path d="M 320 100 Q 328 115 326 130 Q 324 138 320 143 L 318 140 Q 320 128 320 115 Q 320 107 320 100" fill="#B8964F" stroke="#D4AF37" stroke-width="2"/>
    <ellipse cx="322" cy="107" rx="3.5" ry="5" fill="#D4AF37"/>
    <ellipse cx="323" cy="117" rx="3.5" ry="5" fill="#D4AF37"/>
    <ellipse cx="324" cy="127" rx="3.5" ry="5" fill="#D4AF37"/>
    <ellipse cx="324" cy="136" rx="4" ry="6" fill="#D4AF37"/>

    <!-- Parte superiore della corona -->
    <path d="M 100 60 Q 150 45 200 45 Q 250 45 300 60" fill="none" stroke="#D4AF37" stroke-width="2.5"/>
    <ellipse cx="120" cy="55" rx="3.5" ry="5" fill="#D4AF37" transform="rotate(-30 120 55)"/>
    <ellipse cx="160" cy="47" rx="3.5" ry="5" fill="#D4AF37" transform="rotate(-15 160 47)"/>
    <ellipse cx="200" cy="45" rx="4" ry="6" fill="#D4AF37"/>
    <ellipse cx="240" cy="47" rx="3.5" ry="5" fill="#D4AF37" transform="rotate(15 240 47)"/>
    <ellipse cx="280" cy="55" rx="3.5" ry="5" fill="#D4AF37" transform="rotate(30 280 55)"/>

    <!-- Bilancia della giustizia -->
    <line x1="200" y1="60" x2="200" y2="140" stroke="#8B7355" stroke-width="4"/>
    <circle cx="200" cy="58" r="5" fill="#D4AF37"/>
    <line x1="140" y1="90" x2="260" y2="90" stroke="#8B7355" stroke-width="3.5"/>
    <circle cx="200" cy="90" r="6" fill="#C5A572"/>

    <!-- Piatto sinistro -->
    <line x1="150" y1="90" x2="148" y2="103" stroke="#8B7355" stroke-width="2"/>
    <line x1="130" y1="90" x2="132" y2="103" stroke="#8B7355" stroke-width="2"/>
    <ellipse cx="140" cy="103" rx="13" ry="3" fill="#C5A572" opacity="0.85"/>
    <path d="M 127 103 Q 140 107 153 103" stroke="#8B7355" stroke-width="2.5" fill="none"/>

    <!-- Piatto destro -->
    <line x1="250" y1="90" x2="252" y2="103" stroke="#8B7355" stroke-width="2"/>
    <line x1="270" y1="90" x2="268" y2="103" stroke="#8B7355" stroke-width="2"/>
    <ellipse cx="260" cy="103" rx="13" ry="3" fill="#C5A572" opacity="0.85"/>
    <path d="M 247 103 Q 260 107 273 103" stroke="#8B7355" stroke-width="2.5" fill="none"/>

    <!-- Base -->
    <rect x="185" y="140" width="30" height="15" fill="#8B7355" rx="2"/>
    <rect x="175" y="155" width="50" height="8" fill="#8B7355" rx="2"/>

    <!-- Testo -->
    <text x="200" y="185" font-family="Georgia, serif" font-size="24" fill="#D4AF37" font-weight="600" text-anchor="middle" font-style="italic">Avv. Francesco Iaccarino</text>
    <text x="200" y="197" font-family="Georgia, serif" font-size="10" fill="#B8964F" text-anchor="middle">Diritto Penale - Diritto Civile - Diritto dell'Immigrazione</text>
  </svg>
